<?xml version="1.0" encoding="UTF-8" standalone="no"?>
<!DOCTYPE svg PUBLIC "-//W3C//DTD SVG 1.1//EN"
 "http://www.w3.org/Graphics/SVG/1.1/DTD/svg11.dtd">
<!-- Generated by graphviz version 5.0.0 (20220707.1540)
 -->
<!-- Title: UmlClassDiagram Pages: 1 -->
<svg width="2234pt" height="1281pt"
 viewBox="0.00 0.00 2234.00 1281.40" xmlns="http://www.w3.org/2000/svg" xmlns:xlink="http://www.w3.org/1999/xlink">
<g id="graph0" class="graph" transform="scale(1 1) rotate(0) translate(4 1277.4)">
<title>UmlClassDiagram</title>
<polygon fill="white" stroke="transparent" points="-4,4 -4,-1277.4 2230,-1277.4 2230,4 -4,4"/>
<!-- 0 -->
<g id="node1" class="node">
<title>0</title>
<polygon fill="#f2f2f2" stroke="black" points="0,-244.1 0,-436.1 293.27,-436.1 293.27,-244.1 0,-244.1"/>
<text text-anchor="middle" x="146.63" y="-419.5" font-family="Times,serif" font-size="14.00">Migrations</text>
<text text-anchor="middle" x="146.63" y="-402.7" font-family="Times,serif" font-size="14.00">contracts/Migrations.sol</text>
<polyline fill="none" stroke="black" points="0,-394.5 293.27,-394.5 "/>
<text text-anchor="start" x="8" y="-377.9" font-family="Times,serif" font-size="14.00">Public:</text>
<text text-anchor="start" x="8" y="-361.1" font-family="Times,serif" font-size="14.00"> &#160;&#160;owner: address</text>
<text text-anchor="start" x="8" y="-344.3" font-family="Times,serif" font-size="14.00"> &#160;&#160;last_completed_migration: uint</text>
<polyline fill="none" stroke="black" points="0,-336.1 293.27,-336.1 "/>
<text text-anchor="start" x="8" y="-319.5" font-family="Times,serif" font-size="14.00">Public:</text>
<text text-anchor="start" x="8" y="-302.7" font-family="Times,serif" font-size="14.00"> &#160;&#160;&#160;&lt;&lt;modifier&gt;&gt; restricted()</text>
<text text-anchor="start" x="8" y="-285.9" font-family="Times,serif" font-size="14.00"> &#160;&#160;&#160;constructor()</text>
<text text-anchor="start" x="8" y="-269.1" font-family="Times,serif" font-size="14.00"> &#160;&#160;&#160;setCompleted(completed: uint) &lt;&lt;restricted&gt;&gt;</text>
<text text-anchor="start" x="8" y="-252.3" font-family="Times,serif" font-size="14.00"> &#160;&#160;&#160;upgrade(new_address: address) &lt;&lt;restricted&gt;&gt;</text>
</g>
<!-- 0&#45;&gt;0 -->
<g id="edge1" class="edge">
<title>0&#45;&gt;0</title>
<path fill="none" stroke="black" stroke-dasharray="5,2" d="M228.38,-243.95C271.81,-228 311.27,-260.05 311.27,-340.1 311.27,-414.05 277.59,-447.04 238.22,-439.06"/>
<polygon fill="black" stroke="black" points="238.95,-435.63 228.38,-436.25 237.03,-442.36 238.95,-435.63"/>
</g>
<!-- 1 -->
<g id="node2" class="node">
<title>1</title>
<polygon fill="#f2f2f2" stroke="black" points="460.87,-737.9 460.87,-1013.9 788.39,-1013.9 788.39,-737.9 460.87,-737.9"/>
<text text-anchor="middle" x="624.63" y="-997.3" font-family="Times,serif" font-size="14.00">ConsumerRole</text>
<text text-anchor="middle" x="624.63" y="-980.5" font-family="Times,serif" font-size="14.00">contracts/coffeeaccesscontrol/ConsumerRole.sol</text>
<polyline fill="none" stroke="black" points="460.87,-972.3 788.39,-972.3 "/>
<text text-anchor="start" x="468.87" y="-955.7" font-family="Times,serif" font-size="14.00">Private:</text>
<text text-anchor="start" x="468.87" y="-938.9" font-family="Times,serif" font-size="14.00"> &#160;&#160;consumers: Roles.Role</text>
<polyline fill="none" stroke="black" points="460.87,-930.7 788.39,-930.7 "/>
<text text-anchor="start" x="468.87" y="-914.1" font-family="Times,serif" font-size="14.00">Internal:</text>
<text text-anchor="start" x="468.87" y="-897.3" font-family="Times,serif" font-size="14.00"> &#160;&#160;&#160;_addConsumer(account: address)</text>
<text text-anchor="start" x="468.87" y="-880.5" font-family="Times,serif" font-size="14.00"> &#160;&#160;&#160;_removeConsumer(account: address)</text>
<text text-anchor="start" x="468.87" y="-863.7" font-family="Times,serif" font-size="14.00">Public:</text>
<text text-anchor="start" x="468.87" y="-846.9" font-family="Times,serif" font-size="14.00"> &#160;&#160;&#160;&lt;&lt;event&gt;&gt; ConsumerAdded(addr: address)</text>
<text text-anchor="start" x="468.87" y="-830.1" font-family="Times,serif" font-size="14.00"> &#160;&#160;&#160;&lt;&lt;event&gt;&gt; ConsumerRemoved(addr: address)</text>
<text text-anchor="start" x="468.87" y="-813.3" font-family="Times,serif" font-size="14.00"> &#160;&#160;&#160;&lt;&lt;modifier&gt;&gt; onlyConsumer()</text>
<text text-anchor="start" x="468.87" y="-796.5" font-family="Times,serif" font-size="14.00"> &#160;&#160;&#160;constructor()</text>
<text text-anchor="start" x="468.87" y="-779.7" font-family="Times,serif" font-size="14.00"> &#160;&#160;&#160;isConsumer(account: address): bool</text>
<text text-anchor="start" x="468.87" y="-762.9" font-family="Times,serif" font-size="14.00"> &#160;&#160;&#160;addConsumer(account: address) &lt;&lt;onlyConsumer&gt;&gt;</text>
<text text-anchor="start" x="468.87" y="-746.1" font-family="Times,serif" font-size="14.00"> &#160;&#160;&#160;renounceConsumer()</text>
</g>
<!-- 6 -->
<g id="node6" class="node">
<title>6</title>
<polygon fill="#f2f2f2" stroke="black" points="1021.43,-1130.9 1021.43,-1214.1 1257.84,-1214.1 1257.84,-1130.9 1021.43,-1130.9"/>
<text text-anchor="middle" x="1139.63" y="-1197.5" font-family="Times,serif" font-size="14.00">&lt;&lt;Struct&gt;&gt;</text>
<text text-anchor="middle" x="1139.63" y="-1180.7" font-family="Times,serif" font-size="14.00">Role</text>
<text text-anchor="middle" x="1139.63" y="-1163.9" font-family="Times,serif" font-size="14.00">contracts/coffeeaccesscontrol/Roles.sol</text>
<polyline fill="none" stroke="black" points="1021.43,-1155.7 1257.84,-1155.7 "/>
<text text-anchor="start" x="1029.43" y="-1139.1" font-family="Times,serif" font-size="14.00">bearer: mapping(address=&gt;bool)</text>
</g>
<!-- 1&#45;&gt;6 -->
<g id="edge2" class="edge">
<title>1&#45;&gt;6</title>
<path fill="none" stroke="black" d="M765.47,-1014.03C775.71,-1021.73 786.14,-1029 796.63,-1035.6 863.18,-1077.43 944.74,-1110.39 1011.63,-1133.36"/>
<polygon fill="black" stroke="black" points="1010.8,-1136.78 1021.39,-1136.68 1013.05,-1130.15 1010.8,-1136.78"/>
</g>
<!-- 2 -->
<g id="node3" class="node">
<title>2</title>
<polygon fill="#f2f2f2" stroke="black" points="805.98,-737.9 805.98,-1013.9 1141.28,-1013.9 1141.28,-737.9 805.98,-737.9"/>
<text text-anchor="middle" x="973.63" y="-997.3" font-family="Times,serif" font-size="14.00">DistributorRole</text>
<text text-anchor="middle" x="973.63" y="-980.5" font-family="Times,serif" font-size="14.00">contracts/coffeeaccesscontrol/DistributorRole.sol</text>
<polyline fill="none" stroke="black" points="805.98,-972.3 1141.28,-972.3 "/>
<text text-anchor="start" x="813.98" y="-955.7" font-family="Times,serif" font-size="14.00">Private:</text>
<text text-anchor="start" x="813.98" y="-938.9" font-family="Times,serif" font-size="14.00"> &#160;&#160;distributors: Roles.Role</text>
<polyline fill="none" stroke="black" points="805.98,-930.7 1141.28,-930.7 "/>
<text text-anchor="start" x="813.98" y="-914.1" font-family="Times,serif" font-size="14.00">Internal:</text>
<text text-anchor="start" x="813.98" y="-897.3" font-family="Times,serif" font-size="14.00"> &#160;&#160;&#160;_addDistributor(account: address)</text>
<text text-anchor="start" x="813.98" y="-880.5" font-family="Times,serif" font-size="14.00"> &#160;&#160;&#160;_removeDistributor(account: address)</text>
<text text-anchor="start" x="813.98" y="-863.7" font-family="Times,serif" font-size="14.00">Public:</text>
<text text-anchor="start" x="813.98" y="-846.9" font-family="Times,serif" font-size="14.00"> &#160;&#160;&#160;&lt;&lt;event&gt;&gt; DistributorAdded(addr: address)</text>
<text text-anchor="start" x="813.98" y="-830.1" font-family="Times,serif" font-size="14.00"> &#160;&#160;&#160;&lt;&lt;event&gt;&gt; DistributorRemoved(addr: address)</text>
<text text-anchor="start" x="813.98" y="-813.3" font-family="Times,serif" font-size="14.00"> &#160;&#160;&#160;&lt;&lt;modifier&gt;&gt; onlyDistributor()</text>
<text text-anchor="start" x="813.98" y="-796.5" font-family="Times,serif" font-size="14.00"> &#160;&#160;&#160;constructor()</text>
<text text-anchor="start" x="813.98" y="-779.7" font-family="Times,serif" font-size="14.00"> &#160;&#160;&#160;isDistributor(account: address): bool</text>
<text text-anchor="start" x="813.98" y="-762.9" font-family="Times,serif" font-size="14.00"> &#160;&#160;&#160;addDistributor(account: address) &lt;&lt;onlyDistributor&gt;&gt;</text>
<text text-anchor="start" x="813.98" y="-746.1" font-family="Times,serif" font-size="14.00"> &#160;&#160;&#160;renounceDistributor()</text>
</g>
<!-- 2&#45;&gt;6 -->
<g id="edge3" class="edge">
<title>2&#45;&gt;6</title>
<path fill="none" stroke="black" d="M1051.04,-1014.28C1072.72,-1052.75 1094.91,-1092.13 1111.66,-1121.85"/>
<polygon fill="black" stroke="black" points="1108.72,-1123.76 1116.68,-1130.76 1114.82,-1120.33 1108.72,-1123.76"/>
</g>
<!-- 3 -->
<g id="node4" class="node">
<title>3</title>
<polygon fill="#f2f2f2" stroke="black" points="1159,-737.9 1159,-1013.9 1452.27,-1013.9 1452.27,-737.9 1159,-737.9"/>
<text text-anchor="middle" x="1305.63" y="-997.3" font-family="Times,serif" font-size="14.00">FarmerRole</text>
<text text-anchor="middle" x="1305.63" y="-980.5" font-family="Times,serif" font-size="14.00">contracts/coffeeaccesscontrol/FarmerRole.sol</text>
<polyline fill="none" stroke="black" points="1159,-972.3 1452.27,-972.3 "/>
<text text-anchor="start" x="1167" y="-955.7" font-family="Times,serif" font-size="14.00">Private:</text>
<text text-anchor="start" x="1167" y="-938.9" font-family="Times,serif" font-size="14.00"> &#160;&#160;farmers: Roles.Role</text>
<polyline fill="none" stroke="black" points="1159,-930.7 1452.27,-930.7 "/>
<text text-anchor="start" x="1167" y="-914.1" font-family="Times,serif" font-size="14.00">Internal:</text>
<text text-anchor="start" x="1167" y="-897.3" font-family="Times,serif" font-size="14.00"> &#160;&#160;&#160;_addFarmer(account: address)</text>
<text text-anchor="start" x="1167" y="-880.5" font-family="Times,serif" font-size="14.00"> &#160;&#160;&#160;_removeFarmer(account: address)</text>
<text text-anchor="start" x="1167" y="-863.7" font-family="Times,serif" font-size="14.00">Public:</text>
<text text-anchor="start" x="1167" y="-846.9" font-family="Times,serif" font-size="14.00"> &#160;&#160;&#160;&lt;&lt;event&gt;&gt; FarmerAdded(account: address)</text>
<text text-anchor="start" x="1167" y="-830.1" font-family="Times,serif" font-size="14.00"> &#160;&#160;&#160;&lt;&lt;event&gt;&gt; FarmerRemoved(account: address)</text>
<text text-anchor="start" x="1167" y="-813.3" font-family="Times,serif" font-size="14.00"> &#160;&#160;&#160;&lt;&lt;modifier&gt;&gt; onlyFarmer()</text>
<text text-anchor="start" x="1167" y="-796.5" font-family="Times,serif" font-size="14.00"> &#160;&#160;&#160;constructor()</text>
<text text-anchor="start" x="1167" y="-779.7" font-family="Times,serif" font-size="14.00"> &#160;&#160;&#160;isFarmer(account: address): bool</text>
<text text-anchor="start" x="1167" y="-762.9" font-family="Times,serif" font-size="14.00"> &#160;&#160;&#160;addFarmer(account: address) &lt;&lt;onlyFarmer&gt;&gt;</text>
<text text-anchor="start" x="1167" y="-746.1" font-family="Times,serif" font-size="14.00"> &#160;&#160;&#160;renounceFarmer()</text>
</g>
<!-- 3&#45;&gt;6 -->
<g id="edge4" class="edge">
<title>3&#45;&gt;6</title>
<path fill="none" stroke="black" d="M1228.22,-1014.28C1206.54,-1052.75 1184.36,-1092.13 1167.61,-1121.85"/>
<polygon fill="black" stroke="black" points="1164.45,-1120.33 1162.59,-1130.76 1170.55,-1123.76 1164.45,-1120.33"/>
</g>
<!-- 4 -->
<g id="node5" class="node">
<title>4</title>
<polygon fill="#f2f2f2" stroke="black" points="1470.11,-737.9 1470.11,-1013.9 1771.15,-1013.9 1771.15,-737.9 1470.11,-737.9"/>
<text text-anchor="middle" x="1620.63" y="-997.3" font-family="Times,serif" font-size="14.00">RetailerRole</text>
<text text-anchor="middle" x="1620.63" y="-980.5" font-family="Times,serif" font-size="14.00">contracts/coffeeaccesscontrol/RetailerRole.sol</text>
<polyline fill="none" stroke="black" points="1470.11,-972.3 1771.15,-972.3 "/>
<text text-anchor="start" x="1478.11" y="-955.7" font-family="Times,serif" font-size="14.00">Private:</text>
<text text-anchor="start" x="1478.11" y="-938.9" font-family="Times,serif" font-size="14.00"> &#160;&#160;retailers: Roles.Role</text>
<polyline fill="none" stroke="black" points="1470.11,-930.7 1771.15,-930.7 "/>
<text text-anchor="start" x="1478.11" y="-914.1" font-family="Times,serif" font-size="14.00">Internal:</text>
<text text-anchor="start" x="1478.11" y="-897.3" font-family="Times,serif" font-size="14.00"> &#160;&#160;&#160;_addRetailer(account: address)</text>
<text text-anchor="start" x="1478.11" y="-880.5" font-family="Times,serif" font-size="14.00"> &#160;&#160;&#160;_removeRetailer(account: address)</text>
<text text-anchor="start" x="1478.11" y="-863.7" font-family="Times,serif" font-size="14.00">Public:</text>
<text text-anchor="start" x="1478.11" y="-846.9" font-family="Times,serif" font-size="14.00"> &#160;&#160;&#160;&lt;&lt;event&gt;&gt; RetailerAdded(addr: address)</text>
<text text-anchor="start" x="1478.11" y="-830.1" font-family="Times,serif" font-size="14.00"> &#160;&#160;&#160;&lt;&lt;event&gt;&gt; RetailerRemoved(addr: address)</text>
<text text-anchor="start" x="1478.11" y="-813.3" font-family="Times,serif" font-size="14.00"> &#160;&#160;&#160;&lt;&lt;modifier&gt;&gt; onlyRetailer()</text>
<text text-anchor="start" x="1478.11" y="-796.5" font-family="Times,serif" font-size="14.00"> &#160;&#160;&#160;constructor()</text>
<text text-anchor="start" x="1478.11" y="-779.7" font-family="Times,serif" font-size="14.00"> &#160;&#160;&#160;isRetailer(account: address): bool</text>
<text text-anchor="start" x="1478.11" y="-762.9" font-family="Times,serif" font-size="14.00"> &#160;&#160;&#160;addRetailer(account: address) &lt;&lt;onlyRetailer&gt;&gt;</text>
<text text-anchor="start" x="1478.11" y="-746.1" font-family="Times,serif" font-size="14.00"> &#160;&#160;&#160;renounceRetailer()</text>
</g>
<!-- 4&#45;&gt;6 -->
<g id="edge5" class="edge">
<title>4&#45;&gt;6</title>
<path fill="none" stroke="black" d="M1490.84,-1013.93C1481.28,-1021.65 1471.5,-1028.96 1461.63,-1035.6 1402.24,-1075.53 1329.23,-1107.51 1267.76,-1130.39"/>
<polygon fill="black" stroke="black" points="1266.17,-1127.25 1257.99,-1133.99 1268.59,-1133.82 1266.17,-1127.25"/>
</g>
<!-- 8 -->
<g id="node7" class="node">
<title>8</title>
<polygon fill="#f2f2f2" stroke="black" points="65.08,-1072.1 65.08,-1272.9 292.19,-1272.9 292.19,-1072.1 65.08,-1072.1"/>
<text text-anchor="middle" x="178.63" y="-1256.3" font-family="Times,serif" font-size="14.00">&lt;&lt;Enum&gt;&gt;</text>
<text text-anchor="middle" x="178.63" y="-1239.5" font-family="Times,serif" font-size="14.00">State</text>
<text text-anchor="middle" x="178.63" y="-1222.7" font-family="Times,serif" font-size="14.00">contracts/coffeebase/SupplyChain.sol</text>
<polyline fill="none" stroke="black" points="65.08,-1214.5 292.19,-1214.5 "/>
<text text-anchor="start" x="73.08" y="-1197.9" font-family="Times,serif" font-size="14.00">Harvested: 0</text>
<text text-anchor="start" x="73.08" y="-1181.1" font-family="Times,serif" font-size="14.00">Processed: 1</text>
<text text-anchor="start" x="73.08" y="-1164.3" font-family="Times,serif" font-size="14.00">Packed: 2</text>
<text text-anchor="start" x="73.08" y="-1147.5" font-family="Times,serif" font-size="14.00">ForSale: 3</text>
<text text-anchor="start" x="73.08" y="-1130.7" font-family="Times,serif" font-size="14.00">Sold: 4</text>
<text text-anchor="start" x="73.08" y="-1113.9" font-family="Times,serif" font-size="14.00">Shipped: 5</text>
<text text-anchor="start" x="73.08" y="-1097.1" font-family="Times,serif" font-size="14.00">Received: 6</text>
<text text-anchor="start" x="73.08" y="-1080.3" font-family="Times,serif" font-size="14.00">Purchased: 7</text>
</g>
<!-- 7 -->
<g id="node9" class="node">
<title>7</title>
<polygon fill="#f2f2f2" stroke="black" points="329.14,-0.5 329.14,-679.7 1618.13,-679.7 1618.13,-0.5 329.14,-0.5"/>
<text text-anchor="middle" x="973.63" y="-663.1" font-family="Times,serif" font-size="14.00">SupplyChain</text>
<text text-anchor="middle" x="973.63" y="-646.3" font-family="Times,serif" font-size="14.00">contracts/coffeebase/SupplyChain.sol</text>
<polyline fill="none" stroke="black" points="329.14,-638.1 1618.13,-638.1 "/>
<text text-anchor="start" x="337.14" y="-621.5" font-family="Times,serif" font-size="14.00">Public:</text>
<text text-anchor="start" x="337.14" y="-604.7" font-family="Times,serif" font-size="14.00"> &#160;&#160;upc: uint</text>
<text text-anchor="start" x="337.14" y="-587.9" font-family="Times,serif" font-size="14.00"> &#160;&#160;sku: uint</text>
<text text-anchor="start" x="337.14" y="-571.1" font-family="Times,serif" font-size="14.00"> &#160;&#160;items: mapping(uint=&gt;Item)</text>
<text text-anchor="start" x="337.14" y="-554.3" font-family="Times,serif" font-size="14.00"> &#160;&#160;itemsHistory: mapping(uint=&gt;string[])</text>
<text text-anchor="start" x="337.14" y="-537.5" font-family="Times,serif" font-size="14.00"> &#160;&#160;defaultState: State</text>
<polyline fill="none" stroke="black" points="329.14,-529.3 1618.13,-529.3 "/>
<text text-anchor="start" x="337.14" y="-512.7" font-family="Times,serif" font-size="14.00">Public:</text>
<text text-anchor="start" x="337.14" y="-495.9" font-family="Times,serif" font-size="14.00"> &#160;&#160;&#160;&lt;&lt;payable&gt;&gt; buyItem(_upc: uint) &lt;&lt;forSale, paidEnough, checkValue, onlyDistributor&gt;&gt;</text>
<text text-anchor="start" x="337.14" y="-479.1" font-family="Times,serif" font-size="14.00"> &#160;&#160;&#160;&lt;&lt;event&gt;&gt; Harvested(upc: uint)</text>
<text text-anchor="start" x="337.14" y="-462.3" font-family="Times,serif" font-size="14.00"> &#160;&#160;&#160;&lt;&lt;event&gt;&gt; Processed(upc: uint)</text>
<text text-anchor="start" x="337.14" y="-445.5" font-family="Times,serif" font-size="14.00"> &#160;&#160;&#160;&lt;&lt;event&gt;&gt; Packed(upc: uint)</text>
<text text-anchor="start" x="337.14" y="-428.7" font-family="Times,serif" font-size="14.00"> &#160;&#160;&#160;&lt;&lt;event&gt;&gt; ForSale(upc: uint)</text>
<text text-anchor="start" x="337.14" y="-411.9" font-family="Times,serif" font-size="14.00"> &#160;&#160;&#160;&lt;&lt;event&gt;&gt; Sold(upc: uint)</text>
<text text-anchor="start" x="337.14" y="-395.1" font-family="Times,serif" font-size="14.00"> &#160;&#160;&#160;&lt;&lt;event&gt;&gt; Shipped(upc: uint)</text>
<text text-anchor="start" x="337.14" y="-378.3" font-family="Times,serif" font-size="14.00"> &#160;&#160;&#160;&lt;&lt;event&gt;&gt; Received(upc: uint)</text>
<text text-anchor="start" x="337.14" y="-361.5" font-family="Times,serif" font-size="14.00"> &#160;&#160;&#160;&lt;&lt;event&gt;&gt; Purchased(upc: uint)</text>
<text text-anchor="start" x="337.14" y="-344.7" font-family="Times,serif" font-size="14.00"> &#160;&#160;&#160;&lt;&lt;modifier&gt;&gt; verifyCaller(_address: address)</text>
<text text-anchor="start" x="337.14" y="-327.9" font-family="Times,serif" font-size="14.00"> &#160;&#160;&#160;&lt;&lt;modifier&gt;&gt; paidEnough(_price: uint)</text>
<text text-anchor="start" x="337.14" y="-311.1" font-family="Times,serif" font-size="14.00"> &#160;&#160;&#160;&lt;&lt;modifier&gt;&gt; checkValue(_upc: uint)</text>
<text text-anchor="start" x="337.14" y="-294.3" font-family="Times,serif" font-size="14.00"> &#160;&#160;&#160;&lt;&lt;modifier&gt;&gt; harvested(_upc: uint)</text>
<text text-anchor="start" x="337.14" y="-277.5" font-family="Times,serif" font-size="14.00"> &#160;&#160;&#160;&lt;&lt;modifier&gt;&gt; processed(_upc: uint)</text>
<text text-anchor="start" x="337.14" y="-260.7" font-family="Times,serif" font-size="14.00"> &#160;&#160;&#160;&lt;&lt;modifier&gt;&gt; packed(_upc: uint)</text>
<text text-anchor="start" x="337.14" y="-243.9" font-family="Times,serif" font-size="14.00"> &#160;&#160;&#160;&lt;&lt;modifier&gt;&gt; forSale(_upc: uint)</text>
<text text-anchor="start" x="337.14" y="-227.1" font-family="Times,serif" font-size="14.00"> &#160;&#160;&#160;&lt;&lt;modifier&gt;&gt; sold(_upc: uint)</text>
<text text-anchor="start" x="337.14" y="-210.3" font-family="Times,serif" font-size="14.00"> &#160;&#160;&#160;&lt;&lt;modifier&gt;&gt; shipped(_upc: uint)</text>
<text text-anchor="start" x="337.14" y="-193.5" font-family="Times,serif" font-size="14.00"> &#160;&#160;&#160;&lt;&lt;modifier&gt;&gt; received(_upc: uint)</text>
<text text-anchor="start" x="337.14" y="-176.7" font-family="Times,serif" font-size="14.00"> &#160;&#160;&#160;&lt;&lt;modifier&gt;&gt; purchased(_upc: uint)</text>
<text text-anchor="start" x="337.14" y="-159.9" font-family="Times,serif" font-size="14.00"> &#160;&#160;&#160;constructor()</text>
<text text-anchor="start" x="337.14" y="-143.1" font-family="Times,serif" font-size="14.00"> &#160;&#160;&#160;harvestItem(_upc: uint, _originFarmerID: address, _originFarmName: string, _originFarmInformation: string, _originFarmLatitude: string, _originFarmLongitude: string, _productNotes: string)</text>
<text text-anchor="start" x="337.14" y="-126.3" font-family="Times,serif" font-size="14.00"> &#160;&#160;&#160;processItem(_upc: uint) &lt;&lt;harvested, onlyFarmer&gt;&gt;</text>
<text text-anchor="start" x="337.14" y="-109.5" font-family="Times,serif" font-size="14.00"> &#160;&#160;&#160;packItem(_upc: uint) &lt;&lt;processed, onlyFarmer&gt;&gt;</text>
<text text-anchor="start" x="337.14" y="-92.7" font-family="Times,serif" font-size="14.00"> &#160;&#160;&#160;sellItem(_upc: uint, _price: uint) &lt;&lt;packed&gt;&gt;</text>
<text text-anchor="start" x="337.14" y="-75.9" font-family="Times,serif" font-size="14.00"> &#160;&#160;&#160;shipItem(_upc: uint) &lt;&lt;sold, onlyDistributor&gt;&gt;</text>
<text text-anchor="start" x="337.14" y="-59.1" font-family="Times,serif" font-size="14.00"> &#160;&#160;&#160;receiveItem(_upc: uint) &lt;&lt;shipped, onlyRetailer&gt;&gt;</text>
<text text-anchor="start" x="337.14" y="-42.3" font-family="Times,serif" font-size="14.00"> &#160;&#160;&#160;purchaseItem(_upc: uint) &lt;&lt;received, onlyConsumer&gt;&gt;</text>
<text text-anchor="start" x="337.14" y="-25.5" font-family="Times,serif" font-size="14.00"> &#160;&#160;&#160;fetchItemBufferOne(_upc: uint): (itemSKU: uint, itemUPC: uint, ownerID: address, originFarmerID: address, originFarmName: string, originFarmInformation: string, originFarmLatitude: string, originFarmLongitude: string)</text>
<text text-anchor="start" x="337.14" y="-8.7" font-family="Times,serif" font-size="14.00"> &#160;&#160;&#160;fetchItemBufferTwo(_upc: uint): (itemSKU: uint, itemUPC: uint, productID: uint, productNotes: string, productPrice: uint, itemState: uint, distributorID: address, retailerID: address, consumerID: address)</text>
</g>
<!-- 8&#45;&gt;7 -->
<g id="edge7" class="edge">
<title>8&#45;&gt;7</title>
<path fill="none" stroke="black" d="M161.74,-1071.91C146.33,-971.33 137.02,-816.83 215.63,-716.2 245.79,-677.6 275.5,-696.84 319.12,-683.88"/>
<polygon fill="black" stroke="black" points="319.21,-683.85 323.53,-678.07 330.52,-679.83 326.2,-685.61 319.21,-683.85"/>
</g>
<!-- 9 -->
<g id="node8" class="node">
<title>9</title>
<polygon fill="#f2f2f2" stroke="black" points="216.08,-716.7 216.08,-1035.1 443.19,-1035.1 443.19,-716.7 216.08,-716.7"/>
<text text-anchor="middle" x="329.63" y="-1018.5" font-family="Times,serif" font-size="14.00">&lt;&lt;Struct&gt;&gt;</text>
<text text-anchor="middle" x="329.63" y="-1001.7" font-family="Times,serif" font-size="14.00">Item</text>
<text text-anchor="middle" x="329.63" y="-984.9" font-family="Times,serif" font-size="14.00">contracts/coffeebase/SupplyChain.sol</text>
<polyline fill="none" stroke="black" points="216.08,-976.7 443.19,-976.7 "/>
<text text-anchor="start" x="224.08" y="-960.1" font-family="Times,serif" font-size="14.00">sku: uint</text>
<text text-anchor="start" x="224.08" y="-943.3" font-family="Times,serif" font-size="14.00">upc: uint</text>
<text text-anchor="start" x="224.08" y="-926.5" font-family="Times,serif" font-size="14.00">ownerID: address</text>
<text text-anchor="start" x="224.08" y="-909.7" font-family="Times,serif" font-size="14.00">originFarmerID: address</text>
<text text-anchor="start" x="224.08" y="-892.9" font-family="Times,serif" font-size="14.00">originFarmName: string</text>
<text text-anchor="start" x="224.08" y="-876.1" font-family="Times,serif" font-size="14.00">originFarmInformation: string</text>
<text text-anchor="start" x="224.08" y="-859.3" font-family="Times,serif" font-size="14.00">originFarmLatitude: string</text>
<text text-anchor="start" x="224.08" y="-842.5" font-family="Times,serif" font-size="14.00">originFarmLongitude: string</text>
<text text-anchor="start" x="224.08" y="-825.7" font-family="Times,serif" font-size="14.00">productID: uint</text>
<text text-anchor="start" x="224.08" y="-808.9" font-family="Times,serif" font-size="14.00">productNotes: string</text>
<text text-anchor="start" x="224.08" y="-792.1" font-family="Times,serif" font-size="14.00">productPrice: uint</text>
<text text-anchor="start" x="224.08" y="-775.3" font-family="Times,serif" font-size="14.00">itemState: State</text>
<text text-anchor="start" x="224.08" y="-758.5" font-family="Times,serif" font-size="14.00">distributorID: address</text>
<text text-anchor="start" x="224.08" y="-741.7" font-family="Times,serif" font-size="14.00">retailerID: address</text>
<text text-anchor="start" x="224.08" y="-724.9" font-family="Times,serif" font-size="14.00">consumerID: address</text>
</g>
<!-- 9&#45;&gt;8 -->
<g id="edge6" class="edge">
<title>9&#45;&gt;8</title>
<path fill="none" stroke="black" stroke-dasharray="5,2" d="M248.39,-1035.41C243.62,-1044.71 238.89,-1053.94 234.26,-1062.97"/>
<polygon fill="black" stroke="black" points="231.12,-1061.42 229.67,-1071.92 237.35,-1064.61 231.12,-1061.42"/>
</g>
<!-- 9&#45;&gt;7 -->
<g id="edge8" class="edge">
<title>9&#45;&gt;7</title>
<path fill="none" stroke="black" d="M443.21,-734.02C448.95,-727.86 454.77,-721.88 460.63,-716.2 470.4,-706.74 480.42,-697.34 490.64,-688"/>
<polygon fill="black" stroke="black" points="490.79,-687.87 492.55,-680.88 499.68,-679.81 497.92,-686.8 490.79,-687.87"/>
</g>
<!-- 7&#45;&gt;1 -->
<g id="edge13" class="edge">
<title>7&#45;&gt;1</title>
<path fill="none" stroke="black" d="M752.11,-679.92C744.96,-690.86 737.92,-701.63 731.05,-712.14"/>
<polygon fill="none" stroke="black" points="721.96,-706.84 714.34,-737.7 739.54,-718.33 721.96,-706.84"/>
</g>
<!-- 7&#45;&gt;2 -->
<g id="edge11" class="edge">
<title>7&#45;&gt;2</title>
<path fill="none" stroke="black" d="M973.63,-679.92C973.63,-689.3 973.63,-698.55 973.63,-707.62"/>
<polygon fill="none" stroke="black" points="963.13,-707.7 973.63,-737.7 984.13,-707.7 963.13,-707.7"/>
</g>
<!-- 7&#45;&gt;3 -->
<g id="edge10" class="edge">
<title>7&#45;&gt;3</title>
<path fill="none" stroke="black" d="M1184.36,-679.92C1191.17,-690.86 1197.87,-701.63 1204.4,-712.14"/>
<polygon fill="none" stroke="black" points="1195.54,-717.77 1220.3,-737.7 1213.37,-706.68 1195.54,-717.77"/>
</g>
<!-- 7&#45;&gt;4 -->
<g id="edge12" class="edge">
<title>7&#45;&gt;4</title>
<path fill="none" stroke="black" d="M1419.43,-679.87C1433.77,-692.01 1447.87,-704.14 1461.63,-716.2 1462.13,-716.63 1462.62,-717.07 1463.12,-717.51"/>
<polygon fill="none" stroke="black" points="1456.27,-725.47 1485.57,-737.79 1470.35,-709.89 1456.27,-725.47"/>
</g>
<!-- 7&#45;&gt;8 -->
<g id="edge15" class="edge">
<title>7&#45;&gt;8</title>
<path fill="none" stroke="black" d="M328.95,-672.96C323.16,-675.4 317.39,-677.82 311.63,-680.2 262.54,-700.52 230.34,-674.33 197.63,-716.2 121.55,-813.59 127.82,-961.43 146.35,-1062.03"/>
<polygon fill="black" stroke="black" points="142.93,-1062.75 148.24,-1071.91 149.8,-1061.44 142.93,-1062.75"/>
</g>
<!-- 7&#45;&gt;9 -->
<g id="edge14" class="edge">
<title>7&#45;&gt;9</title>
<path fill="none" stroke="black" d="M481.68,-679.81C470.82,-689.58 460.17,-699.43 449.58,-709.53"/>
<polygon fill="black" stroke="black" points="447.04,-707.11 442.26,-716.56 451.89,-712.16 447.04,-707.11"/>
</g>
<!-- 10 -->
<g id="node10" class="node">
<title>10</title>
<polygon fill="#f2f2f2" stroke="black" points="1789.27,-746.3 1789.27,-1005.5 2226,-1005.5 2226,-746.3 1789.27,-746.3"/>
<text text-anchor="middle" x="2007.63" y="-988.9" font-family="Times,serif" font-size="14.00">Ownable</text>
<text text-anchor="middle" x="2007.63" y="-972.1" font-family="Times,serif" font-size="14.00">contracts/coffeecore/Ownable.sol</text>
<polyline fill="none" stroke="black" points="1789.27,-963.9 2226,-963.9 "/>
<text text-anchor="start" x="1797.27" y="-947.3" font-family="Times,serif" font-size="14.00">Private:</text>
<text text-anchor="start" x="1797.27" y="-930.5" font-family="Times,serif" font-size="14.00"> &#160;&#160;origOwner: address</text>
<polyline fill="none" stroke="black" points="1789.27,-922.3 2226,-922.3 "/>
<text text-anchor="start" x="1797.27" y="-905.7" font-family="Times,serif" font-size="14.00">Internal:</text>
<text text-anchor="start" x="1797.27" y="-888.9" font-family="Times,serif" font-size="14.00"> &#160;&#160;&#160;_transferOwnership(newOwner: address)</text>
<text text-anchor="start" x="1797.27" y="-872.1" font-family="Times,serif" font-size="14.00">Public:</text>
<text text-anchor="start" x="1797.27" y="-855.3" font-family="Times,serif" font-size="14.00"> &#160;&#160;&#160;&lt;&lt;event&gt;&gt; TransferOwnership(oldOwner: address, newOwner: address)</text>
<text text-anchor="start" x="1797.27" y="-838.5" font-family="Times,serif" font-size="14.00"> &#160;&#160;&#160;&lt;&lt;modifier&gt;&gt; onlyOwner()</text>
<text text-anchor="start" x="1797.27" y="-821.7" font-family="Times,serif" font-size="14.00"> &#160;&#160;&#160;constructor()</text>
<text text-anchor="start" x="1797.27" y="-804.9" font-family="Times,serif" font-size="14.00"> &#160;&#160;&#160;owner(): address</text>
<text text-anchor="start" x="1797.27" y="-788.1" font-family="Times,serif" font-size="14.00"> &#160;&#160;&#160;isOwner(): bool</text>
<text text-anchor="start" x="1797.27" y="-771.3" font-family="Times,serif" font-size="14.00"> &#160;&#160;&#160;renounceOwnership() &lt;&lt;onlyOwner&gt;&gt;</text>
<text text-anchor="start" x="1797.27" y="-754.5" font-family="Times,serif" font-size="14.00"> &#160;&#160;&#160;transferOwnership(newOwner: address) &lt;&lt;onlyOwner&gt;&gt;</text>
</g>
<!-- 7&#45;&gt;10 -->
<g id="edge9" class="edge">
<title>7&#45;&gt;10</title>
<path fill="none" stroke="black" d="M1618.14,-628.18C1673.74,-656.7 1728.59,-686.22 1780.63,-716.2 1788.33,-720.63 1796.09,-725.25 1803.88,-730.01"/>
<polygon fill="none" stroke="black" points="1798.55,-739.06 1829.55,-746.1 1809.71,-721.27 1798.55,-739.06"/>
</g>
</g>
</svg>
